#!OML:ASF I:\Actors\actors\Patient Classification 1\Patient 1\Session 1\Subject1.ASF
:FULLY-SPECIFIED
:DEGREES
675
root 0.639255 17.5533 9.10065 13.1004 -6.93242 -9.88238
lowerback 1.30631 1.91716 5.69873
upperback -6.01789 3.01556 2.75686
thorax -6.89012 1.25791 -0.512277
lowerneck -21.0816 -3.31099 -1.42883
upperneck 24.7744 -5.79135 5.30922
head 11.8402 -2.03937 1.27134
rclavicle 7.25642e-015 8.84592e-015
rhumerus 39.8887 48.4696 -54.7579
rradius 44.9717
rwrist 11.08
rhand 0.231637 -38.8872
rfingers 7.12502
rthumb 25.8122 -427.156
lclavicle 7.25642e-015 8.84592e-015
lhumerus 38.0082 -48.0901 34.0606
lradius 54.6075
lwrist 38.2453
lhand -44.1971 -1.33279
lfingers 7.12502
lthumb -17.011 27.9424
rfemur -9.40003 27.111 23.6207
rtibia 1.29219
rfoot -8.40353 -21.8339
rtoes -1.18383
lfemur 6.23295 -56.2603 -12.8894
ltibia -4.6096
lfoot -51.7769 62.2086
ltoes 27.4036
676
root 0.640392 17.5518 9.11147 13.0086 -6.69964 -9.85143
lowerback 1.25631 1.90927 5.75072
upperback -6.0329 3.00178 2.71205
thorax -6.87327 1.24715 -0.585279
lowerneck -21.1174 -3.34026 -1.50284
upperneck 24.9013 -5.83456 5.37083
head 11.9029 -2.05396 1.29996
rclavicle -3.7575e-015 2.49475e-014
rhumerus 40.2116 49.141 -53.6751
rradius 45.9491
rwrist 10.9861
rhand -1.85922 -39.6704
rfingers 7.12502
rthumb 23.8084 -428.215
lclavicle -3.7575e-015 2.49475e-014
lhumerus 37.2018 -47.6737 35.0184
lradius 54.5602
lwrist 39.2794
lhand -48.0667 -3.46421
lfingers 7.12502
lthumb -20.7325 25.4483
rfemur -9.26016 26.9077 23.6745
rtibia 1.3457
rfoot -8.5379 -21.8278
rtoes -1.13941
lfemur 6.23287 -56.0801 -12.8993
ltibia -4.62717
lfoot -50.8363 62.1414
ltoes 26.9625
677
root 0.641153 17.5499 9.12209 12.9321 -6.49393 -9.85538
lowerback 1.14897 1.9 5.80727
upperback -6.02205 2.98089 2.68709
thorax -6.79671 1.23517 -0.637263
lowerneck -20.9716 -3.19991 -1.41882
upperneck 24.8741 -5.64265 5.31149
head 11.8507 -1.97111 1.2972
rclavicle 3.5426e-014 1.31198e-014
rhumerus 40.4137 49.5518 -53.0025
rradius 46.7165
rwrist 11.8933
rhand -3.70055 -40.0666
rfingers 7.12502
rthumb 22.0415 -428.831
lclavicle 3.5426e-014 1.31198e-014
lhumerus 36.3831 -47.2437 35.9676
lradius 54.586
lwrist 40.5715
lhand -51.7096 -5.45336
lfingers 7.12502
lthumb -24.2291 23.0359
rfemur -9.13704 26.7756 23.7556
rtibia 1.40173
rfoot -8.70267 -21.8648
rtoes -0.899077
lfemur 6.31046 -56.009 -12.9413
ltibia -4.6431
lfoot -50.3421 62.0606
ltoes 26.7892
678
root 0.641693 17.5493 9.13298 12.8532 -6.27943 -9.81663
lowerback 1.01725 1.8908 5.80994
upperback -6.01211 2.95519 2.65646
thorax -6.70908 1.224 -0.664281
lowerneck -20.4509 -2.75101 -1.12987
upperneck 24.6291 -5.02917 5.13573
head 11.6148 -1.70602 1.2874
rclavicle -3.14326e-014 1.37161e-014
rhumerus 40.5635 49.8403 -52.5621
rradius 47.3846
rwrist 12.7376
rhand -5.91624 -40.5451
rfingers 7.12502
rthumb 19.9129 -429.545
lclavicle -3.14326e-014 1.37161e-014
lhumerus 35.5526 -46.8863 36.9136
lradius 54.7231
lwrist 42.3116
lhand -54.6331 -7.11336
lfingers 7.12502
lthumb -27.0292 20.9725
rfemur -8.98974 26.7374 23.7848
rtibia 1.41551
rfoot -8.84523 -22.0201
rtoes -0.566943
lfemur 6.37067 -56.0193 -13.0438
ltibia -4.59497
lfoot -49.7892 62.0059
ltoes 26.5153
679
root 0.642674 17.5483 9.14209 12.7507 -6.0899 -9.80383
lowerback 0.927572 1.91735 5.88739
upperback -5.99699 2.98196 2.58768
thorax -6.63252 1.23327 -0.777093
lowerneck -20.5382 -2.74508 -1.13314
upperneck 24.8816 -5.04227 5.15664
head 11.7304 -1.70225 1.29482
rclavicle -3.64344e-014 -1.74931e-014
rhumerus 40.8306 50.1349 -52.0652
rradius 48.0692
rwrist 13.0284
rhand -8.9195 -41.3731
rfingers 7.12502
rthumb 17.0239 -430.647
lclavicle -3.64344e-014 -1.74931e-014
lhumerus 34.821 -46.6595 37.774
lradius 54.9324
lwrist 44.4825
lhand -56.4573 -8.07318
lfingers 7.12502
lthumb -28.7732 19.7294
rfemur -8.8232 26.7238 23.8497
rtibia 1.43
rfoot -8.95048 -22.1813
rtoes -0.244207
lfemur 6.43377 -55.9251 -13.1011
ltibia -4.5838
lfoot -49.0521 61.9292
ltoes 26.1332
680
root 0.643119 17.5469 9.14969 12.6721 -5.97363 -9.8234
lowerback 0.75621 1.96589 6.0162
upperback -5.9375 3.02899 2.49486
thorax -6.45645 1.25254 -0.940706
lowerneck -20.489 -2.72452 -1.09752
upperneck 24.914 -5.04395 5.21652
head 11.7346 -1.69166 1.31159
rclavicle 1.8512e-014 1.74931e-014
rhumerus 41.2011 50.3699 -51.6518
rradius 48.7349
rwrist 13.3908
rhand -12.4075 -42.3144
rfingers 7.12502
rthumb 13.6642 -431.846
lclavicle 1.8512e-014 1.74931e-014
lhumerus 34.2719 -46.5503 38.337
lradius 55.1863
lwrist 46.8757
lhand -57.2533 -8.44816
lfingers 7.12502
lthumb -29.5333 19.2226
rfemur -8.70376 26.7071 23.935
rtibia 1.46171
rfoot -9.03828 -22.2662
rtoes 0.00298436
lfemur 6.44179 -55.6513 -13.0535
ltibia -4.6324
lfoot -48.0375 61.9031
ltoes 25.6281
681
root 0.643675 17.5463 9.15752 12.6514 -5.93994 -9.83204
lowerback 0.756947 2.01141 5.95553
upperback -6.02944 3.09394 2.50623
thorax -6.55504 1.28444 -0.900209
lowerneck -20.4961 -2.67469 -1.15045
upperneck 25.1856 -4.98022 5.24225
head 11.8405 -1.65873 1.3428
rclavicle -2.54538e-015 2.18663e-015
rhumerus 41.4347 50.7653 -51.3538
rradius 49.308
rwrist 14.5178
rhand -15.7928 -43.2651
rfingers 7.12502
rthumb 10.4 -432.988
lclavicle -2.54538e-015 2.18663e-015
lhumerus 33.5524 -46.7553 38.9748
lradius 55.4016
lwrist 48.8268
lhand -57.2712 -7.66034
lfingers 7.12502
lthumb -29.5504 20.0074
rfemur -8.65607 26.6818 23.9683
rtibia 1.48182
rfoot -9.08625 -22.2662
rtoes 0.139267
lfemur 6.44598 -55.5037 -13.0408
ltibia -4.65737
lfoot -47.3547 61.9693
ltoes 25.2265
